# xmcd
#
# Track frame offsets:
#	150
#	14588
#	31592
#	49420
#	74290
#
# Disc length: 1201 seconds
#
# Revision: 1
# Processed by: cddbd v1.5.1PL2 Copyright (c) Steve Scherf et al.
# Submitted via: audiograbber 1.83.01
#
DISCID=3c04af05
DTITLE=Edsilia - How can you say that
DYEAR=2000
DGENRE=R&B
TTITLE0=How can you say that (radio edit)
TTITLE1=How can you say that (T.O.Ms Dance Radio Edit)
TTITLE2=Slippin`
TTITLE3=How can you say that (Free house Club Mix)
TTITLE4=How can you say that (Album Version)
EXTD=
EXTT0=
EXTT1=
EXTT2=
EXTT3=
EXTT4=
PLAYORDER=
